<svg xmlns="http://www.w3.org/2000/svg" viewBox="0 0 442 360" role="img" aria-label="lodeflow"><title>lodeflow</title><defs><clipPath id="lf-clip-b"><rect x="226" y="-100" width="142" height="100"/></clipPath></defs><path d="M91,-150V0" transform="translate(0,150)" fill="none" stroke="#eef1f6" stroke-width="26"/><rect x="129" y="63" width="76" height="74" rx="22" fill="none" stroke="#5b86ff" stroke-width="26"/><path d="M243,-50a37,37 0 1 0 74,0a37,37 0 1 0 -74,0M317,-150V0" transform="translate(0,150)" fill="none" stroke="#eef1f6" stroke-width="26"/><path d="M355,-50H429A37,37 0 1 0 420.3436443954022,-26.21685844159805" transform="translate(0,150)" fill="none" stroke="#eef1f6" stroke-width="26"/><path d="M167,150V238" stroke="#5b86ff" stroke-width="8"/><path d="M167,258L153,238L181,238Z" fill="#5b86ff"/><path d="M17,0V-111A26,26 0 0 1 43,-137H66M0,-87H60" transform="translate(0,360)" fill="none" stroke="#eef1f6" stroke-width="26"/><path d="M91,-150V0" transform="translate(0,360)" fill="none" stroke="#eef1f6" stroke-width="26"/><rect x="129" y="273" width="76" height="74" rx="22" fill="#5b86ff" stroke="#5b86ff" stroke-width="26"/><path d="M236,-120L267,0L297,-64L327,0L358,-120" transform="translate(0,360)" clip-path="url(#lf-clip-b)" fill="none" stroke="#eef1f6" stroke-width="26"/></svg>
